<svg xmlns="http://www.w3.org/2000/svg" viewBox="0 0 24 24" fill="currentColor"><path d="M12 2.2c3.2 0 3.6 0 4.8.07 1.2.07 1.9.25 2.3.42.6.24 1 .52 1.5.98.46.45.74.88.98 1.48.17.43.35 1.08.42 2.3.07 1.23.07 1.64.07 4.85s0 3.62-.07 4.85c-.07 1.22-.25 1.88-.42 2.3-.24.6-.52 1.03-.98 1.48-.45.46-.88.74-1.48.98-.43.17-1.08.35-2.3.42-1.23.07-1.64.07-4.85.07s-3.62 0-4.85-.07c-1.22-.07-1.88-.25-2.3-.42-.6-.24-1.03-.52-1.48-.98-.46-.45-.74-.88-.98-1.48-.17-.43-.35-1.08-.42-2.3C2.2 15.6 2.2 15.2 2.2 12s0-3.62.07-4.85c.07-1.22.25-1.88.42-2.3.24-.6.52-1.03.98-1.48.45-.46.88-.74 1.48-.98.43-.17 1.08-.35 2.3-.42C8.38 2.2 8.8 2.2 12 2.2m0-1.7C8.74.5 8.3.5 7.06.57 5.83.64 4.98.83 4.27 1.1c-.8.31-1.47.73-2.13 1.39A5.3 5.3 0 0 0 .75 4.62c-.26.7-.45 1.56-.52 2.79C.16 8.65.16 9.1.16 12.36c0 3.26 0 3.7.07 4.94.07 1.23.26 2.09.52 2.8.3.8.72 1.47 1.38 2.13.66.66 1.33 1.08 2.13 1.38.71.26 1.57.45 2.8.52 1.24.07 1.68.07 4.94.07 3.26 0 3.7 0 4.94-.07 1.23-.07 2.09-.26 2.8-.52.8-.3 1.47-.72 2.13-1.38.66-.66 1.08-1.33 1.38-2.13.26-.71.45-1.57.52-2.8.07-1.24.07-1.68.07-4.94 0-3.26 0-3.7-.07-4.94-.07-1.23-.26-2.09-.52-2.8a5.3 5.3 0 0 0-1.38-2.13A5.3 5.3 0 0 0 19.38 1.1c-.71-.26-1.57-.45-2.8-.52C15.34.5 14.9.5 11.64.5z"/><path d="M12 5.9a6.1 6.1 0 1 0 0 12.2A6.1 6.1 0 0 0 12 5.9m0 10a3.9 3.9 0 1 1 0-7.8 3.9 3.9 0 0 1 0 7.8z"/><circle cx="17.6" cy="6.4" r="1.2"/></svg>